<svg width="254" height="35" viewBox="0 0 254 35" fill="none" xmlns="http://www.w3.org/2000/svg">
<path d="M16.2 35C13.1 35 10.3667 34.25 8 32.75C5.66667 31.25 3.86667 29.2167 2.6 26.65C1.33333 24.05 0.7 21.1667 0.7 18C0.7 14.7333 1.38333 11.7167 2.75 8.95C4.15 6.18333 6.03333 4 8.4 2.4C10.8 0.799999 13.4 -3.57628e-07 16.2 -3.57628e-07C18.8667 -3.57628e-07 21.2 0.383333 23.2 1.15C25.2333 1.88333 26.7333 2.83333 27.7 4C28.2667 4.7 28.6167 5.63333 28.75 6.8C28.8833 7.93333 28.95 9.5 28.95 11.5H27.95C27.3167 8.26666 26.15 5.88333 24.45 4.35C22.75 2.78333 20.5 2 17.7 2C14.1 2 11.2 3.26666 9 5.8C6.8 8.33333 5.7 12.4 5.7 18C5.7 20.6333 6.11667 23.0833 6.95 25.35C7.81667 27.6167 9.15 29.4667 10.95 30.9C12.75 32.3 15 33 17.7 33C20.1333 33 22.25 32.4167 24.05 31.25C25.8833 30.0833 27.5167 28.3333 28.95 26L29.95 26.75C28.4167 29.75 26.5167 31.8833 24.25 33.15C22.0167 34.3833 19.3333 35 16.2 35ZM40.952 34.5C39.8853 34.5 38.802 34.2833 37.702 33.85C36.602 33.3833 35.652 32.6333 34.852 31.6C34.0853 30.5667 33.702 29.2 33.702 27.5C33.702 24.9667 34.8686 23.1667 37.202 22.1C39.5686 21.0333 42.652 20.5 46.452 20.5H47.952C47.952 17.2333 47.502 15 46.602 13.8C45.702 12.6 44.402 12 42.702 12C41.202 12 40.002 12.3167 39.102 12.95C38.202 13.5833 37.5686 14.6833 37.202 16.25H34.952C34.952 15.1167 35.0186 14.2333 35.152 13.6C35.2853 12.9333 35.6353 12.3167 36.202 11.75C36.802 11.15 37.7853 10.7167 39.152 10.45C40.552 10.15 42.0686 10 43.702 10C46.402 10 48.5353 10.7333 50.102 12.2C51.6686 13.6333 52.452 16.4 52.452 20.5V34H49.952L48.202 31.75H47.952C47.352 32.5167 46.4686 33.1667 45.302 33.7C44.1353 34.2333 42.6853 34.5 40.952 34.5ZM43.202 32.25C44.302 32.25 45.2186 31.9833 45.952 31.45C46.6853 30.9167 47.352 30.1833 47.952 29.25V22.5H46.452C43.9853 22.5 42.0353 22.9667 40.602 23.9C39.1686 24.8 38.452 26 38.452 27.5C38.452 29.0333 38.902 30.2167 39.802 31.05C40.7353 31.85 41.8686 32.25 43.202 32.25ZM67.1742 34.5C64.2742 34.5 62.0409 33.35 60.4742 31.05C58.9409 28.75 58.1742 25.8167 58.1742 22.25C58.1742 18.6833 58.9742 15.75 60.5742 13.45C62.2076 11.15 64.5742 10 67.6742 10C68.9409 10 70.0576 10.1333 71.0242 10.4C71.9909 10.6667 72.9576 11.0333 73.9242 11.5V7C73.9242 5.3 73.6909 4.05 73.2242 3.25C72.7576 2.41666 71.8242 2 70.4242 2H69.4242V0.999999H73.9242C75.1576 0.999999 76.0742 1.16667 76.6742 1.5C77.3076 1.8 77.7576 2.36666 78.0242 3.2C78.2909 4.03333 78.4242 5.3 78.4242 7V34H75.9242L74.1742 31.75H73.9242C73.1909 32.5833 72.3242 33.25 71.3242 33.75C70.3576 34.25 68.9742 34.5 67.1742 34.5ZM68.6742 32.5C70.0409 32.5 71.0742 32.25 71.7742 31.75C72.4742 31.25 73.1909 30.5 73.9242 29.5V13.5C72.9242 13.0333 72.0576 12.6667 71.3242 12.4C70.5909 12.1333 69.8742 12 69.1742 12C67.0409 12 65.4576 12.9333 64.4242 14.8C63.4242 16.6667 62.9242 19.15 62.9242 22.25C62.9242 25.3167 63.4076 27.8 64.3742 29.7C65.3409 31.5667 66.7742 32.5 68.6742 32.5ZM91.2449 34.5C90.1783 34.5 89.0949 34.2833 87.9949 33.85C86.8949 33.3833 85.9449 32.6333 85.1449 31.6C84.3783 30.5667 83.9949 29.2 83.9949 27.5C83.9949 24.9667 85.1616 23.1667 87.4949 22.1C89.8616 21.0333 92.9449 20.5 96.7449 20.5H98.2449C98.2449 17.2333 97.7949 15 96.8949 13.8C95.9949 12.6 94.6949 12 92.9949 12C91.4949 12 90.2949 12.3167 89.3949 12.95C88.4949 13.5833 87.8616 14.6833 87.4949 16.25H85.2449C85.2449 15.1167 85.3116 14.2333 85.4449 13.6C85.5783 12.9333 85.9283 12.3167 86.4949 11.75C87.0949 11.15 88.0783 10.7167 89.4449 10.45C90.8449 10.15 92.3616 10 93.9949 10C96.6949 10 98.8283 10.7333 100.395 12.2C101.962 13.6333 102.745 16.4 102.745 20.5V34H100.245L98.4949 31.75H98.2449C97.6449 32.5167 96.7616 33.1667 95.5949 33.7C94.4283 34.2333 92.9783 34.5 91.2449 34.5ZM93.4949 32.25C94.5949 32.25 95.5116 31.9833 96.2449 31.45C96.9783 30.9167 97.6449 30.1833 98.2449 29.25V22.5H96.7449C94.2783 22.5 92.3283 22.9667 90.8949 23.9C89.4616 24.8 88.7449 26 88.7449 27.5C88.7449 29.0333 89.1949 30.2167 90.0949 31.05C91.0283 31.85 92.1616 32.25 93.4949 32.25ZM117.567 34.5C113.734 34.5 111.151 33.8333 109.817 32.5C109.251 31.9333 108.901 31.3 108.767 30.6C108.634 29.8667 108.567 28.75 108.567 27.25H109.567C109.867 28.9167 110.584 30.2167 111.717 31.15C112.884 32.05 114.501 32.5 116.567 32.5C118.401 32.5 119.767 32.1833 120.667 31.55C121.601 30.9167 122.067 30.0667 122.067 29C122.067 28.0333 121.701 27.2 120.967 26.5C120.267 25.8 119.134 25.1333 117.567 24.5L114.567 23.25C112.567 22.45 111.067 21.5167 110.067 20.45C109.067 19.3833 108.567 18.0667 108.567 16.5C108.567 14.4667 109.334 12.8833 110.867 11.75C112.401 10.5833 114.384 10 116.817 10C120.484 10 122.984 10.6667 124.317 12C124.884 12.5667 125.234 13.2 125.367 13.9C125.501 14.6 125.567 15.7167 125.567 17.25H124.567C124.301 15.5833 123.601 14.3 122.467 13.4C121.334 12.4667 119.784 12 117.817 12C116.251 12 115.017 12.3333 114.117 13C113.251 13.6333 112.817 14.4667 112.817 15.5C112.817 17.2333 114.151 18.65 116.817 19.75L119.817 21C122.084 21.9333 123.734 22.9333 124.767 24C125.801 25.0333 126.317 26.3667 126.317 28C126.317 30.0333 125.501 31.6333 123.867 32.8C122.234 33.9333 120.134 34.5 117.567 34.5ZM138.982 34.5C137.115 34.5 135.648 33.9667 134.582 32.9C133.515 31.8333 132.982 30.2 132.982 28V12.5H129.482V10.5H132.982V6L135.482 3H137.482V10.5H143.482V12.5H137.482V28C137.482 31 138.648 32.5 140.982 32.5C141.782 32.5 142.448 32.4167 142.982 32.25C143.548 32.0833 144.132 31.8333 144.732 31.5L145.232 32.5C144.465 33.0667 143.615 33.55 142.682 33.95C141.748 34.3167 140.515 34.5 138.982 34.5ZM149.326 16.5C149.326 14.8 149.093 13.55 148.626 12.75C148.16 11.9167 147.226 11.5 145.826 11.5H145.326V10.5H149.326C150.593 10.5 151.543 10.6833 152.176 11.05C152.843 11.3833 153.31 11.95 153.576 12.75H153.826C154.426 11.9833 155.226 11.3333 156.226 10.8C157.26 10.2667 158.46 10 159.826 10C161.16 10 162.16 10.25 162.826 10.75C163.393 11.1833 163.976 11.9333 164.576 13L162.576 14.5C162.21 14 161.676 13.6333 160.976 13.4C160.276 13.1333 159.476 13 158.576 13C157.576 13 156.66 13.2333 155.826 13.7C154.993 14.1333 154.326 14.7333 153.826 15.5V34H149.326V16.5ZM177.51 34.5C175.243 34.5 173.326 33.9667 171.76 32.9C170.193 31.8 169.01 30.3333 168.21 28.5C167.41 26.6333 167.01 24.55 167.01 22.25C167.01 19.9833 167.41 17.9167 168.21 16.05C169.01 14.1833 170.16 12.7167 171.66 11.65C173.193 10.55 174.976 10 177.01 10C180.376 10 182.876 10.95 184.51 12.85C186.176 14.7167 187.01 17.4333 187.01 21L186.91 23H171.76C171.76 25.8 172.36 28.0833 173.56 29.85C174.76 31.6167 176.41 32.5 178.51 32.5C180.076 32.5 181.393 32.1667 182.46 31.5C183.56 30.8333 184.576 29.8333 185.51 28.5L186.51 29.25C185.41 31.0833 184.126 32.4167 182.66 33.25C181.193 34.0833 179.476 34.5 177.51 34.5ZM182.26 21C182.26 18.0667 181.826 15.8333 180.96 14.3C180.093 12.7667 178.776 12 177.01 12C176.01 12 175.11 12.4 174.31 13.2C173.51 13.9667 172.876 15.0333 172.41 16.4C171.976 17.7667 171.76 19.3 171.76 21H182.26ZM192.474 19H205.224V22.5H192.474V19ZM219.96 34.5C216.126 34.5 213.543 33.8333 212.21 32.5C211.643 31.9333 211.293 31.3 211.16 30.6C211.026 29.8667 210.96 28.75 210.96 27.25H211.96C212.26 28.9167 212.976 30.2167 214.11 31.15C215.276 32.05 216.893 32.5 218.96 32.5C220.793 32.5 222.16 32.1833 223.06 31.55C223.993 30.9167 224.46 30.0667 224.46 29C224.46 28.0333 224.093 27.2 223.36 26.5C222.66 25.8 221.526 25.1333 219.96 24.5L216.96 23.25C214.96 22.45 213.46 21.5167 212.46 20.45C211.46 19.3833 210.96 18.0667 210.96 16.5C210.96 14.4667 211.726 12.8833 213.26 11.75C214.793 10.5833 216.776 10 219.21 10C222.876 10 225.376 10.6667 226.71 12C227.276 12.5667 227.626 13.2 227.76 13.9C227.893 14.6 227.96 15.7167 227.96 17.25H226.96C226.693 15.5833 225.993 14.3 224.86 13.4C223.726 12.4667 222.176 12 220.21 12C218.643 12 217.41 12.3333 216.51 13C215.643 13.6333 215.21 14.4667 215.21 15.5C215.21 17.2333 216.543 18.65 219.21 19.75L222.21 21C224.476 21.9333 226.126 22.9333 227.16 24C228.193 25.0333 228.71 26.3667 228.71 28C228.71 30.0333 227.893 31.6333 226.26 32.8C224.626 33.9333 222.526 34.5 219.96 34.5ZM243.574 34.5C241.308 34.5 239.391 33.9667 237.824 32.9C236.258 31.8 235.074 30.3333 234.274 28.5C233.474 26.6333 233.074 24.55 233.074 22.25C233.074 19.9833 233.474 17.9167 234.274 16.05C235.074 14.1833 236.224 12.7167 237.724 11.65C239.258 10.55 241.041 10 243.074 10C246.441 10 248.941 10.95 250.574 12.85C252.241 14.7167 253.074 17.4333 253.074 21L252.974 23H237.824C237.824 25.8 238.424 28.0833 239.624 29.85C240.824 31.6167 242.474 32.5 244.574 32.5C246.141 32.5 247.458 32.1667 248.524 31.5C249.624 30.8333 250.641 29.8333 251.574 28.5L252.574 29.25C251.474 31.0833 250.191 32.4167 248.724 33.25C247.258 34.0833 245.541 34.5 243.574 34.5ZM248.324 21C248.324 18.0667 247.891 15.8333 247.024 14.3C246.158 12.7667 244.841 12 243.074 12C242.074 12 241.174 12.4 240.374 13.2C239.574 13.9667 238.941 15.0333 238.474 16.4C238.041 17.7667 237.824 19.3 237.824 21H248.324Z" fill="white"/>
</svg>
