<svg width="414" height="70" viewBox="0 0 414 70" fill="none" xmlns="http://www.w3.org/2000/svg">
<path d="M22.918 69.683C19.288 69.683 15.724 69.188 12.226 68.198C8.728 67.208 5.857 65.789 3.613 63.941C1.435 62.093 0.346 59.981 0.346 57.605V47.012H2.128C3.25 53.612 5.428 58.397 8.662 61.367C11.896 64.271 16.351 65.723 22.027 65.723C25.591 65.723 28.627 64.832 31.135 63.05C33.709 61.268 34.996 58.793 34.996 55.625C34.996 52.853 34.138 50.444 32.422 48.398C30.706 46.352 27.934 44.207 24.106 41.963L11.929 34.736C7.705 32.228 4.702 29.687 2.92 27.113C1.204 24.539 0.346 21.404 0.346 17.708C0.346 12.626 2.095 8.567 5.593 5.531C9.157 2.429 13.81 0.877997 19.552 0.877997C22.918 0.877997 26.251 1.373 29.551 2.363C32.851 3.287 35.557 4.673 37.669 6.52099C39.847 8.303 40.936 10.382 40.936 12.758V23.351H39.154C38.032 16.751 35.887 12.032 32.719 9.194C29.617 6.29 25.228 4.838 19.552 4.838C16.516 4.838 13.843 5.762 11.533 7.61C9.223 9.458 8.068 11.867 8.068 14.837C8.068 17.543 8.893 19.787 10.543 21.569C12.259 23.351 15.097 25.43 19.057 27.806L31.234 35.033C35.722 37.739 38.89 40.247 40.738 42.557C42.586 44.867 43.51 47.804 43.51 51.368C43.51 56.912 41.662 61.367 37.966 64.733C34.27 68.033 29.254 69.683 22.918 69.683ZM58.2811 14.54C58.2811 11.174 57.8191 8.699 56.8951 7.115C55.9711 5.465 54.1231 4.64 51.3511 4.64H49.3711V2.66H91.5451C97.1551 2.66 99.9601 5.3 99.9601 10.58V18.005H97.9801C97.9801 10.415 93.8551 6.62 85.6051 6.62H67.1911V32.36H93.9211V36.32H67.1911V64.04H84.5161C89.0701 64.04 92.6341 63.215 95.2081 61.565C97.7821 59.915 99.8281 57.11 101.346 53.15L103.326 53.645L99.8611 63.05C98.6731 66.35 96.1981 68 92.4361 68H58.2811V14.54ZM160.236 68.99C156.738 68.99 153.669 67.967 151.029 65.921C148.455 63.809 145.584 60.047 142.416 54.635L132.516 37.805H125.586V68H116.676V14.54C116.676 11.174 116.214 8.699 115.29 7.115C114.366 5.465 112.518 4.64 109.746 4.64H107.766V2.66H133.506C139.776 2.66 145.452 3.914 150.534 6.422C155.682 8.864 158.256 13.55 158.256 20.48C158.256 29.258 152.976 34.868 142.416 37.31L152.811 54.635C155.253 58.727 157.431 61.598 159.345 63.248C161.325 64.832 163.602 65.756 166.176 66.02V68C165.582 68.264 164.724 68.495 163.602 68.693C162.546 68.891 161.424 68.99 160.236 68.99ZM133.011 34.34C135.057 34.34 137.268 33.845 139.644 32.855C142.086 31.865 144.132 30.314 145.782 28.202C147.498 26.09 148.356 23.516 148.356 20.48C148.356 17.246 147.498 14.573 145.782 12.461C144.132 10.283 142.086 8.699 139.644 7.709C137.268 6.653 135.057 6.125 133.011 6.125C130.701 6.125 128.226 6.455 125.586 7.115V33.35C128.226 34.01 130.701 34.34 133.011 34.34ZM171.725 14.243C170.075 10.415 168.524 7.808 167.072 6.422C165.62 4.97 163.541 4.112 160.835 3.848V1.868C161.165 1.868 161.66 1.835 162.32 1.769C162.914 1.703 163.541 1.67 164.201 1.67C167.501 1.67 170.669 2.528 173.705 4.24399C176.741 5.894 179.315 9.227 181.427 14.243L198.356 54.14L204.197 40.577C206.969 34.175 212.282 21.536 220.136 2.66H224.888L196.475 68.99H194.693L171.725 14.243ZM237.525 14.54C237.525 11.174 237.063 8.699 236.139 7.115C235.215 5.465 233.367 4.64 230.595 4.64H228.615V2.66H270.789C276.399 2.66 279.204 5.3 279.204 10.58V18.005H277.224C277.224 10.415 273.099 6.62 264.849 6.62H246.435V32.36H273.165V36.32H246.435V64.04H263.76C268.314 64.04 271.878 63.215 274.452 61.565C277.026 59.915 279.072 57.11 280.59 53.15L282.57 53.645L279.105 63.05C277.917 66.35 275.442 68 271.68 68H237.525V14.54ZM320.472 68.99C314.136 68.99 309.12 67.934 305.424 65.822C301.728 63.644 299.088 60.443 297.504 56.219C295.986 51.995 295.227 46.517 295.227 39.785V14.54C295.227 11.174 294.765 8.699 293.841 7.115C292.917 5.465 291.069 4.64 288.297 4.64H286.317V2.66H295.227C297.669 2.66 299.484 2.99 300.672 3.65C301.926 4.244 302.817 5.366 303.345 7.01599C303.873 8.666 304.137 11.174 304.137 14.54V42.755C304.137 50.081 305.49 55.625 308.196 59.387C310.902 63.149 315.39 65.03 321.66 65.03C326.676 65.03 330.636 64.139 333.54 62.357C336.51 60.575 338.622 57.869 339.876 54.239C341.13 50.609 341.757 45.791 341.757 39.785V2.66H345.717V39.785C345.717 46.649 344.991 52.193 343.539 56.417C342.087 60.575 339.513 63.71 335.817 65.822C332.187 67.934 327.072 68.99 320.472 68.99ZM407.446 68.99C403.948 68.99 400.879 67.967 398.239 65.921C395.665 63.809 392.794 60.047 389.626 54.635L379.726 37.805H372.796V68H363.886V14.54C363.886 11.174 363.424 8.699 362.5 7.115C361.576 5.465 359.728 4.64 356.956 4.64H354.976V2.66H380.716C386.986 2.66 392.662 3.914 397.744 6.422C402.892 8.864 405.466 13.55 405.466 20.48C405.466 29.258 400.186 34.868 389.626 37.31L400.021 54.635C402.463 58.727 404.641 61.598 406.555 63.248C408.535 64.832 410.812 65.756 413.386 66.02V68C412.792 68.264 411.934 68.495 410.812 68.693C409.756 68.891 408.634 68.99 407.446 68.99ZM380.221 34.34C382.267 34.34 384.478 33.845 386.854 32.855C389.296 31.865 391.342 30.314 392.992 28.202C394.708 26.09 395.566 23.516 395.566 20.48C395.566 17.246 394.708 14.573 392.992 12.461C391.342 10.283 389.296 8.699 386.854 7.709C384.478 6.653 382.267 6.125 380.221 6.125C377.911 6.125 375.436 6.455 372.796 7.115V33.35C375.436 34.01 377.911 34.34 380.221 34.34Z" fill="white"/>
</svg>
